<svg width="144" height="36" viewBox="0 0 144 36" fill="none" xmlns="http://www.w3.org/2000/svg">
  <rect width="36" height="36" rx="10" fill="#1A7A4A"/>
  <path d="M8 18H28" stroke="white" stroke-width="3" stroke-linecap="round"/>
  <path d="M18 8V28" stroke="white" stroke-width="3" stroke-linecap="round"/>
  <circle cx="18" cy="18" r="5" fill="#C9F3D6"/>
  <path d="M50.68 25V11.4H45.64V8.6H58.96V11.4H53.92V25H50.68ZM66.1528 25.32C63.2728 25.32 61.2328 23.64 61.2328 20.96C61.2328 18.16 63.3928 16.56 66.7528 16.56H70.0168V16.3C70.0168 14.7 69.0968 13.9 67.3368 13.9C65.8088 13.9 64.8488 14.52 64.5688 15.74H61.5528C61.9128 12.98 64.1928 11.48 67.4568 11.48C71.1768 11.48 73.0328 13.22 73.0328 16.4V25H70.2568L70.1168 23.28C69.2968 24.56 67.8888 25.32 66.1528 25.32ZM66.9328 22.92C68.6928 22.92 70.0168 21.74 70.0168 19.9V19.1H67.1968C65.5688 19.1 64.6688 19.68 64.6688 20.74C64.6688 21.94 65.5488 22.92 66.9328 22.92ZM80.3983 25.32C76.9183 25.32 74.6783 22.9 74.6783 18.42C74.6783 13.92 76.9383 11.48 80.3983 11.48C82.1943 11.48 83.6423 12.26 84.3783 13.48V7.8H87.4143V25H84.6783L84.5183 23.2C83.7423 24.48 82.2143 25.32 80.3983 25.32ZM81.0783 22.74C83.1383 22.74 84.4783 21.2 84.4783 18.42C84.4783 15.64 83.1383 14.08 81.0783 14.08C79.0583 14.08 77.7143 15.62 77.7143 18.42C77.7143 21.18 79.0583 22.74 81.0783 22.74ZM95.8822 25.32C92.1022 25.32 89.5822 22.76 89.5822 18.4C89.5822 14.02 92.1222 11.48 95.8822 11.48C99.6422 11.48 102.182 14.02 102.182 18.4C102.182 22.76 99.6622 25.32 95.8822 25.32ZM95.8822 22.74C97.8622 22.74 99.1262 21.18 99.1262 18.4C99.1262 15.6 97.8622 14.06 95.8822 14.06C93.9222 14.06 92.6382 15.6 92.6382 18.4C92.6382 21.18 93.9222 22.74 95.8822 22.74ZM110.087 25.32C106.747 25.32 104.607 23.7 104.267 21.18H107.243C107.543 22.24 108.503 22.84 110.047 22.84C111.487 22.84 112.327 22.34 112.327 21.54C112.327 20.72 111.647 20.38 109.527 20.02C105.927 19.42 104.627 18.46 104.627 15.98C104.627 13.3 106.947 11.48 110.027 11.48C113.287 11.48 115.267 13.08 115.627 15.7H112.731C112.471 14.7 111.711 14.04 110.067 14.04C108.803 14.04 107.923 14.48 107.923 15.3C107.923 16.08 108.423 16.4 110.687 16.8C114.347 17.42 115.747 18.24 115.747 20.88C115.747 23.6 113.447 25.32 110.087 25.32ZM120.711 25V14.3H117.967V11.8H120.711V8.82H123.747V11.8H126.851V14.3H123.747V25H120.711ZM133.879 25.32C130.999 25.32 128.959 23.64 128.959 20.96C128.959 18.16 131.119 16.56 134.479 16.56H137.743V16.3C137.743 14.7 136.823 13.9 135.063 13.9C133.535 13.9 132.575 14.52 132.295 15.74H129.279C129.639 12.98 131.919 11.48 135.183 11.48C138.903 11.48 140.759 13.22 140.759 16.4V25H137.983L137.843 23.28C137.023 24.56 135.615 25.32 133.879 25.32ZM134.659 22.92C136.419 22.92 137.743 21.74 137.743 19.9V19.1H134.923C133.295 19.1 132.395 19.68 132.395 20.74C132.395 21.94 133.275 22.92 134.659 22.92Z" fill="#15623B"/>
</svg>
